<svg width="65" height="17" viewBox="0 0 65 17" fill="none" xmlns="http://www.w3.org/2000/svg">
<path opacity="0.697312" d="M33.499 11.6055V13H27.2373V3.13574H33.499V4.53027H28.7686V7.31934H33.2461V8.64551H28.7686V11.6055H33.499ZM36.093 13V5.55566H37.508V6.75195H37.6174C37.7814 6.32812 38.0435 6 38.4035 5.76758C38.7681 5.5306 39.1965 5.41211 39.6887 5.41211C40.1854 5.41211 40.6092 5.5306 40.9602 5.76758C41.3111 6.00456 41.5708 6.33268 41.7395 6.75195H41.8557C42.0471 6.3418 42.3433 6.01595 42.7443 5.77441C43.1499 5.53288 43.6079 5.41211 44.1184 5.41211C44.8703 5.41211 45.4536 5.62858 45.8684 6.06152C46.2876 6.49447 46.4973 7.09831 46.4973 7.87305V13H45.0275V8.25586C45.0275 7.25781 44.5467 6.75879 43.5852 6.75879C43.1158 6.75879 42.7352 6.9069 42.4436 7.20312C42.1564 7.49935 42.0129 7.87077 42.0129 8.31738V13H40.5705V8.1123C40.5705 7.69303 40.4406 7.36263 40.1809 7.12109C39.9211 6.87956 39.5725 6.75879 39.135 6.75879C38.6883 6.75879 38.3146 6.92057 38.0139 7.24414C37.7131 7.56771 37.5627 7.96875 37.5627 8.44727V13H36.093ZM51.5453 11.8857C52.0967 11.8857 52.5548 11.7308 52.9193 11.4209C53.2885 11.111 53.473 10.7236 53.473 10.2588V9.63672L51.6547 9.75293C51.1443 9.78483 50.7683 9.88965 50.5268 10.0674C50.2852 10.2451 50.1645 10.498 50.1645 10.8262C50.1645 11.1543 50.2921 11.4141 50.5473 11.6055C50.8025 11.7923 51.1352 11.8857 51.5453 11.8857ZM51.1693 13.123C50.4402 13.123 49.8432 12.9202 49.3783 12.5146C48.918 12.1045 48.6879 11.5645 48.6879 10.8945C48.6879 10.2292 48.9271 9.70736 49.4057 9.3291C49.8842 8.94629 50.5678 8.72754 51.4564 8.67285L53.473 8.55664V7.91406C53.473 7.51758 53.3432 7.21452 53.0834 7.00488C52.8236 6.79069 52.4454 6.68359 51.9486 6.68359C51.5385 6.68359 51.1967 6.75651 50.9232 6.90234C50.6544 7.04362 50.4789 7.24642 50.3969 7.51074H48.975C49.0479 6.87272 49.3601 6.36458 49.9115 5.98633C50.4675 5.60352 51.1693 5.41211 52.017 5.41211C52.9467 5.41211 53.6645 5.63314 54.1703 6.0752C54.6807 6.5127 54.9359 7.12565 54.9359 7.91406V13H53.5209V11.9541H53.4047C53.1814 12.3278 52.8738 12.6172 52.4818 12.8223C52.0945 13.0228 51.657 13.123 51.1693 13.123ZM57.6051 13V5.55566H59.068V13H57.6051ZM59.0133 3.99707C58.8355 4.16569 58.61 4.25 58.3365 4.25C58.0631 4.25 57.8352 4.16569 57.6529 3.99707C57.4752 3.82389 57.3863 3.6097 57.3863 3.35449C57.3863 3.09928 57.4752 2.88509 57.6529 2.71191C57.8352 2.53874 58.0631 2.45215 58.3365 2.45215C58.61 2.45215 58.8355 2.53874 59.0133 2.71191C59.1956 2.88509 59.2867 3.09928 59.2867 3.35449C59.2867 3.6097 59.1956 3.82389 59.0133 3.99707ZM61.8465 13V2.65039H63.3162V13H61.8465Z" fill="#211E1E"/>
<path d="M2.66668 2.66675H13.3333C14.0667 2.66675 14.6667 3.26675 14.6667 4.00008V12.0001C14.6667 12.7334 14.0667 13.3334 13.3333 13.3334H2.66668C1.93334 13.3334 1.33334 12.7334 1.33334 12.0001V4.00008C1.33334 3.26675 1.93334 2.66675 2.66668 2.66675Z" stroke="#838384" stroke-width="1.3" stroke-linecap="round" stroke-linejoin="round"/>
<path d="M14.6667 4L8.00001 8.66667L1.33334 4" stroke="#838384" stroke-width="1.3" stroke-linecap="round" stroke-linejoin="round"/>
</svg>
